Coordinates
version=1
nRows=16
nColumns=18
inDegrees=yes

Units are S.I. units (second, meters, Newtons, ...)
Angles are in degrees.

endheader
time	ground_thorax_rot_x	ground_thorax_rot_y	ground_thorax_rot_z	ground_thorax_tx	ground_thorax_ty	ground_thorax_tz	clav_prot	clav_elev	scapula_abduction	scapula_elevation	scapula_upward_rot	scapula_winging	plane_elv	shoulder_elv	axial_rot	elbow_flexion	pro_sup
      1.11000000	      0.94883017	     -3.63650151	    -10.29589619	     -0.00423131	      0.00403036	     -0.00078352	    -20.47356630	      8.40896243	     -8.52899351	      3.74393017	     20.57905338	      1.36427178	    -22.88975477	      7.32966078	     54.82793381	      0.00000000	     34.32000000
      1.12000000	      0.44328413	     -3.72642032	    -10.22028738	     -0.00423131	      0.00403036	     -0.00078352	    -20.58680846	      8.68088399	     -8.60528834	      3.84698748	     20.95157865	      1.25866567	    -22.76686954	      6.79165943	     54.79377731	      0.00000000	     34.32000000
      1.13000000	      0.85900798	     -3.71512178	    -10.32003284	     -0.00423131	      0.00403036	     -0.00078352	    -21.08234529	      9.69362904	     -8.99602329	      4.21998166	     22.37610196	      0.86030130	    -21.75517353	      5.98632042	     54.05716322	      0.00000000	     34.32000000
      1.14000000	      0.70563413	     -3.71038570	    -10.38632487	     -0.00423131	      0.00403036	     -0.00078352	    -21.35643036	     10.00831027	     -9.03884168	      4.22928367	     23.22549976	      0.60196898	    -21.73164055	      5.35989813	     54.04824839	      0.00000000	     34.32000000
      1.15000000	      0.77538818	     -3.71825675	    -10.31697348	     -0.00423131	      0.00403036	     -0.00078352	    -21.52622311	     10.61940347	     -8.90854734	      4.42634142	     24.24841787	      0.30809414	    -22.83897566	      4.82543658	     55.36501316	      0.00000000	     34.32000000
      1.16000000	      0.75107916	     -3.64014998	    -10.22161521	     -0.00423131	      0.00403036	     -0.00078352	    -21.69123516	     11.27917774	     -8.98155316	      4.72321631	     25.01872225	      0.10886567	    -22.08534195	      4.56226913	     53.90279817	      0.00000000	     34.32000000
      1.17000000	      0.21916109	     -3.63473071	    -10.19729967	     -0.00423131	      0.00403036	     -0.00078352	    -21.81954672	     11.56463770	     -9.06756197	      4.83282716	     25.41852160	      0.00137742	    -21.96086716	      3.99863291	     53.92668356	      0.00000000	     34.32000000
      1.18000000	     -0.02079321	     -3.67105757	    -10.23559989	     -0.00423131	      0.00403036	     -0.00078352	    -22.12971706	     12.14071897	     -9.35606626	      5.05868559	     26.19775924	     -0.20537675	    -21.70964293	      3.18980626	     54.01299777	      0.00000000	     34.32000000
      1.19000000	      0.68489711	     -3.77049465	    -10.28152400	     -0.00423131	      0.00403036	     -0.00078352	    -22.66626857	     13.41977797	     -9.88178365	      5.62164629	     27.72006627	     -0.58172250	    -19.87078670	      2.45706198	     55.00342170	      0.00000000	     34.32000000
      1.20000000	      0.67702109	     -3.82177845	    -10.30688332	     -0.00423131	      0.00403036	     -0.00078352	    -22.88887217	     13.91177776	    -10.13853108	      5.84460395	     28.27814402	     -0.71433750	    -15.56021278	      2.30694066	     52.08863064	      0.00000000	     34.32000000
      1.21000000	      0.59411424	     -3.74569480	    -10.30944367	     -0.00423131	      0.00403036	     -0.00078352	    -23.08670732	     14.32725737	    -10.28701230	      6.00841472	     28.85747212	     -0.86185657	    -16.35888664	      1.57694180	     54.25367063	      0.00000000	     34.32000000
      1.22000000	      0.76615956	     -3.82811935	    -10.39616024	     -0.00423131	      0.00403036	     -0.00078352	    -23.30527772	     15.00809023	    -10.61092208	      6.35988032	     29.47184046	     -0.97923610	    -10.16067602	      1.54400344	     48.42800687	      0.00000000	     34.32000000
      1.23000000	      0.77074346	     -3.91708898	    -10.44415674	     -0.00423131	      0.00403036	     -0.00078352	    -23.45398151	     15.60105286	    -10.87473828	      6.68355758	     29.94235128	     -1.05104804	     -5.65345673	      1.19172324	     45.03439188	      0.00000000	     34.32000000
      1.24000000	      0.79895649	     -3.98219874	    -10.53987573	     -0.00423131	      0.00403036	     -0.00078352	    -23.68031319	     16.15710390	    -11.31028769	      6.98656241	     30.35992003	     -1.11406239	      4.95098923	      1.51027690	     32.09180874	      0.00000000	     34.32000000
      1.25000000	      0.57711459	     -3.80660300	    -10.50213072	     -0.00423131	      0.00403036	     -0.00078352	    -23.72284031	     16.20340336	    -11.38043552	      7.00732424	     30.40729851	     -1.12635369	      4.91535722	      1.13210615	     32.18963692	      0.00000000	     34.32000000
      1.26000000	      0.51896302	     -3.33873067	    -10.35651055	     -0.00423131	      0.00403036	     -0.00078352	    -23.86269217	     16.19018015	    -11.50928185	      6.95576383	     30.55281389	     -1.19368481	     -7.28828843	     -0.37362568	     48.20403563	      0.00000000	     34.32000000
